<svg width="300" height="106" viewBox="0 0 300 106" fill="none" xmlns="http://www.w3.org/2000/svg">
<path d="M0 0H300V106H0V0Z" fill="white"/>
<path d="M123.42 50.9041L123.912 49.3221L122.284 49.3733C122.146 49.3733 121.146 49.3448 120.176 48.6385C120.249 48.6456 120.321 48.6555 120.395 48.6555C121.393 48.6555 122.359 48.0517 122.746 47.1887L123.447 45.6294C122.569 45.6408 121.766 45.5297 121.766 45.5297C121.759 45.5282 121.126 45.4471 120.395 44.6966C119.87 44.1583 119.22 43.8734 118.517 43.8734C118.209 43.8734 117.934 43.929 117.697 44.0045C117.734 43.8778 117.769 43.7495 117.789 43.6171C118.013 42.1574 117.077 41.0438 117.077 41.0453L115.854 39.5229L115.095 41.3115C115.092 41.3172 114.9 41.736 114.557 41.941C114.454 41.4155 114.2 40.8245 113.657 40.2591C112.633 39.1939 111.386 39.0358 110.734 39.0358C110.432 39.0358 110.216 39.0686 110.164 39.0771L108.686 39.3691C108.771 39.0373 108.952 38.4605 109.284 37.9407L110.1 36.6648L108.048 36.8998L107.394 35.5055L106.129 36.1607L104.959 35L103.792 36.1607L102.522 35.5055L101.87 36.8998L99.8191 36.6648L100.636 37.9407C100.968 38.4605 101.149 39.0358 101.233 39.3677L99.8233 39.0886L99.7751 39.08C99.7042 39.0686 99.4901 39.0358 99.1866 39.0358C98.5342 39.0358 97.2876 39.1953 96.2664 40.2591C95.7218 40.8231 95.468 41.4155 95.3631 41.941C95.0227 41.7388 94.8326 41.3258 94.8326 41.3258L94.0725 39.5271L92.8288 41.0595C92.6769 41.2574 91.9268 42.3042 92.131 43.62C92.1523 43.751 92.1863 43.8792 92.2232 44.006C91.9878 43.9305 91.7126 43.8749 91.4049 43.8749C90.7014 43.8749 90.0519 44.1597 89.5257 44.6981C88.7967 45.4457 88.167 45.5297 88.1728 45.5297C88.1728 45.5297 87.5076 45.6493 86.478 45.6307L87.1743 47.1902C87.5615 48.0547 88.5287 48.657 89.5257 48.657C89.6009 48.657 89.6732 48.647 89.747 48.6399C88.7797 49.3462 87.7799 49.3747 87.6593 49.3761L86 49.3221L86.5021 50.9027C86.7545 51.7174 87.5983 53.0674 89.2152 53.2126C89.0392 53.9532 88.6492 54.782 87.7927 55.1394L86.5574 55.6506L87.231 56.8284C87.6111 57.4635 88.5032 58.2068 89.7738 58.2068C90.049 58.2054 90.3142 58.1784 90.5695 58.1243C90.6348 58.4148 90.717 58.7054 90.8135 58.9929C91.1921 60.1237 90.8659 60.9126 90.8617 60.9212L90.2518 62.2042L91.6133 62.5646C91.6304 62.5702 92.0416 62.6827 92.5565 62.6827C92.7905 62.6827 93.0131 62.6586 93.223 62.6088C93.3818 62.5717 93.5336 62.5219 93.6796 62.462C93.8555 62.7796 94.0697 63.0687 94.3193 63.3278C95.1915 64.2265 96.4268 64.6821 97.9925 64.6821H97.9982L99.1157 64.6679L96.8068 65.6306L98.5598 66.4808C99.1965 66.7927 99.9524 67.1614 100.721 67.4434L100.503 68.0445L101.107 68.3207C101.161 68.3449 102.322 68.8675 104.254 68.9786C104.254 68.9786 104.72 69 104.977 69C105.234 69 105.695 68.9773 105.695 68.9773C107.614 68.8633 108.767 68.3464 108.821 68.3207L109.426 68.043L109.205 67.4407C109.996 67.1501 110.779 66.767 111.389 66.468L113.109 65.6292L110.807 64.6651L111.929 64.6794C113.496 64.6794 114.733 64.2236 115.604 63.3236C115.852 63.0659 116.066 62.7768 116.244 62.4592C116.39 62.519 116.543 62.5688 116.702 62.6059C116.91 62.6557 117.133 62.68 117.367 62.68C117.873 62.68 118.289 62.5675 118.3 62.5646L119.667 62.2015L119.071 60.9426C119.057 60.9098 118.731 60.1222 119.11 58.9901C119.206 58.701 119.287 58.4106 119.352 58.1214C119.609 58.1755 119.877 58.204 120.154 58.204C121.772 58.204 122.547 57.0605 122.698 56.8127L123.364 55.6478L122.129 55.138C121.271 54.7805 120.883 53.9503 120.708 53.2112C122.302 53.0745 123.159 51.7245 123.42 50.9041ZM101.341 39.9131L101.324 39.9174L101.338 39.8989L101.341 39.9131Z" fill="white"/>
<path d="M104.961 39.8435C103.653 39.8449 102.673 40.275 102.459 40.7805L104.961 41.7718L107.462 40.7805C107.249 40.275 106.269 39.8449 104.961 39.8435Z" fill="white"/>
<path d="M104.986 66.0815H104.983H104.961H104.937H104.936C104.143 66.0873 103.052 65.9234 102.526 65.7697L101.894 67.4885C102.311 67.6381 103.723 67.9228 104.961 67.9228C106.197 67.9228 107.611 67.6367 108.026 67.4885L107.395 65.7697C106.868 65.9248 105.778 66.0873 104.986 66.0815Z" fill="white"/>
<path d="M109.773 64.3723C109.302 64.6401 108.251 65.0416 107.64 65.2282L108.153 66.648C109.099 66.3887 109.879 66.0855 110.524 65.7608L109.459 65.4047L109.773 64.3723Z" fill="white"/>
<path d="M100.149 64.3723L100.464 65.4047L99.3977 65.7608C100.042 66.0855 100.826 66.3887 101.768 66.648L102.281 65.2282C101.673 65.0416 100.62 64.6386 100.149 64.3723Z" fill="white"/>
<path d="M104.961 38.1999C105.946 38.1999 106.913 38.4363 107.657 38.8522C107.725 38.6229 107.82 38.3452 107.949 38.0547L107.668 38.0889L107.373 38.1202L107.248 37.8511L106.872 37.0536L106.187 37.4124L105.921 37.5491L105.708 37.3384L104.963 36.5979L104.22 37.3384L104.007 37.5491L103.741 37.4124L103.052 37.0536L102.68 37.8511L102.552 38.1202L102.257 38.0889L101.977 38.0547C102.106 38.3466 102.199 38.6229 102.269 38.8522C103.013 38.4363 103.978 38.1999 104.961 38.1999Z" fill="white"/>
<path d="M120.009 47.417C120.137 47.4611 120.267 47.481 120.396 47.481C120.954 47.481 121.493 47.1194 121.678 46.7049C121.678 46.7049 120.656 46.6423 119.557 45.5215C119.206 45.1583 118.836 45.0502 118.519 45.0502C118.025 45.0502 117.655 45.3122 117.655 45.3122C118.982 46.0214 119.253 47.1607 120.009 47.417Z" fill="white"/>
<path d="M89.5248 47.481C89.6538 47.481 89.7843 47.4611 89.9092 47.417C90.6679 47.1607 90.9402 46.0214 92.2677 45.3122C92.2677 45.3122 91.896 45.0502 91.4054 45.0502C91.0863 45.0502 90.7161 45.1583 90.3643 45.5215C89.2667 46.6423 88.2441 46.7049 88.2441 46.7049C88.4271 47.1194 88.9674 47.481 89.5248 47.481Z" fill="white"/>
<path d="M120.37 52.0463C120.392 52.0477 120.412 52.0477 120.436 52.0477C121.828 52.0477 122.3 50.5509 122.3 50.5509H122.273C122.018 50.5509 119.948 50.4912 118.486 48.6242C117.523 47.3967 116.735 46.3172 115.176 45.8928L115.023 45.8657L114.989 45.7091C114.946 45.4698 115.109 45.2463 115.48 45.0041C117.63 43.5901 116.17 41.7872 116.17 41.7872C116.17 41.7872 115.556 43.2298 114.182 43.2298C114.149 43.2298 114.114 43.2283 114.08 43.2283C113.924 43.2198 113.774 43.2141 113.622 43.1814L113.368 43.1315C113.368 43.1315 113.759 42.0621 112.815 41.0794C112.103 40.3375 111.236 40.2122 110.736 40.2122C110.483 40.2122 110.323 40.2449 110.323 40.2449C110.798 40.8686 111.141 41.9026 110.592 42.5405C110.119 43.0887 108.961 43.1158 108.961 43.9332C108.961 44.2793 109.283 44.6838 109.862 45.0469C111.602 46.1477 113.33 47.6073 114.047 49.5641C114.945 52.005 113.934 53.6242 112.49 54.5527C112.49 54.5527 112.942 54.9713 113.599 55.024C113.732 55.0368 113.863 55.0425 113.985 55.0425C115.37 55.0425 116.087 54.3903 116.087 54.3903C116.087 54.3903 115.969 55.2917 115.247 56.1291C114.582 56.9024 113.708 57.3567 112.376 57.3766C112.376 57.3766 112.334 57.9975 112.924 58.5344C113.301 58.8733 114.173 58.9844 114.173 58.9844C114.173 58.9844 112.541 59.3162 112.361 61.7372C112.263 63.0487 111.93 63.5044 111.93 63.5044H111.96C115.748 63.5044 115.65 60.2419 115.65 60.2419C115.65 60.2419 115.914 61.2073 116.97 61.4594C117.098 61.4937 117.234 61.5065 117.364 61.5065C117.705 61.5065 118 61.4267 118 61.4267C118 61.4267 117.447 60.2547 117.995 58.6156C118.451 57.2556 118.377 56.2473 118.377 56.2473C118.377 56.2473 118.888 57.022 120.153 57.0292H120.165C121.219 57.0292 121.679 56.2274 121.679 56.2274C119.153 55.175 119.402 51.7772 119.402 51.7772C119.402 51.7772 119.73 52.022 120.37 52.0463ZM119.609 55.595C118.583 55.0867 117.933 53.7367 117.776 53.2496C117.605 55.9269 116.304 57.7853 114.782 59.5739C113.992 60.501 113.717 61.4024 113.717 61.4024C113.717 61.4024 113.868 60.3814 114.552 59.5498C115.972 57.8365 117.32 55.7047 117.421 53.2397C117.491 51.5193 117.05 50.1238 116.362 48.9746C116.746 50.1722 116.692 51.639 115.386 53.0075C115.386 53.0075 117.986 49.8788 114.351 46.6718C112.896 45.4514 111.304 44.698 110.485 44.164C113.446 45.1338 114.891 44.0657 114.891 44.0657C113.945 44.8888 112.721 44.8745 111.962 44.7564C112.168 44.8575 112.382 44.9629 112.613 45.0867C115.109 46.4482 117.353 48.6883 117.736 51.7914V51.7671C118.317 54.8132 119.609 55.595 119.609 55.595Z" fill="white"/>
<path d="M95.7473 58.9844C95.7473 58.9844 96.6195 58.8747 96.9967 58.5344C97.5852 57.9975 97.5442 57.3766 97.5442 57.3766C96.2111 57.358 95.3389 56.9024 94.6695 56.1306C93.9532 55.2932 93.8341 54.3917 93.8341 54.3917C93.8341 54.3917 94.5502 55.044 95.9345 55.044C96.0593 55.044 96.1884 55.0383 96.3216 55.0254C96.9783 54.9727 97.4321 54.554 97.4321 54.554C95.9883 53.6256 94.9758 52.005 95.8721 49.5641C96.5911 47.6088 98.317 46.1477 100.057 45.0469C100.636 44.6838 100.958 44.2807 100.958 43.9332C100.958 43.1158 99.802 43.0887 99.3282 42.5405C98.7795 41.9026 99.1241 40.8672 99.5977 40.2449C99.5977 40.2449 99.4403 40.2122 99.1864 40.2122C98.6872 40.2122 97.8207 40.3375 97.1088 41.0794C96.1614 42.0621 96.5543 43.1315 96.5543 43.1315L96.3004 43.1814C96.1487 43.2141 95.9969 43.2198 95.8423 43.2283C95.8069 43.2283 95.7756 43.2298 95.7416 43.2298C94.3646 43.2298 93.7533 41.7886 93.7533 41.7886C93.7533 41.7886 92.2939 43.5915 94.4425 45.0056C94.8127 45.2477 94.9744 45.4712 94.9319 45.7105L94.8977 45.8672L94.7418 45.8942C93.186 46.3186 92.396 47.398 91.4331 48.6256C89.9737 50.4898 87.9073 50.5509 87.6493 50.5509H87.6208C87.6208 50.5509 88.0932 52.0477 89.4844 52.0477C89.5071 52.0477 89.527 52.0477 89.5511 52.0463C90.1907 52.0234 90.5197 51.7772 90.5197 51.7772C90.5197 51.7772 90.7665 55.1735 88.2435 56.2274C88.2435 56.2274 88.703 57.0292 89.7567 57.0292H89.7695C91.0359 57.022 91.5451 56.2473 91.5451 56.2473C91.5451 56.2473 91.4714 57.2556 91.9252 58.6156C92.474 60.2547 91.9237 61.4267 91.9237 61.4267C91.9237 61.4267 92.2187 61.5065 92.5577 61.5065C92.6896 61.5065 92.8243 61.4937 92.9506 61.4594C94.0056 61.2073 94.2709 60.2419 94.2709 60.2419C94.2709 60.2419 94.1744 63.5044 97.9626 63.5044H97.9894C97.9894 63.5044 97.6576 63.0487 97.5612 61.7372C97.3797 59.3162 95.7473 58.9844 95.7473 58.9844ZM95.1389 59.5739C93.6172 57.7853 92.3166 55.9269 92.145 53.2496C91.9876 53.7353 91.3409 55.0867 90.3141 55.595C90.3141 55.595 91.6046 54.8132 92.1847 51.7671V51.7914C92.5691 48.6897 94.8113 46.4482 97.3087 45.0867C97.5371 44.9614 97.754 44.8561 97.9583 44.7564C97.1996 44.8745 95.9756 44.8888 95.0296 44.0657C95.0296 44.0657 96.4748 45.1338 99.4346 44.164C98.6149 44.698 97.0251 45.4514 95.57 46.6718C91.9336 49.8788 94.5347 53.0075 94.5347 53.0075C93.2271 51.6375 93.1747 50.1722 93.5589 48.9746C92.8697 50.1252 92.4301 51.5193 92.501 53.2397C92.6002 55.7047 93.9489 57.8365 95.3658 59.5498C96.0509 60.38 96.2054 61.4024 96.2054 61.4024C96.2054 61.4024 95.9273 60.501 95.1389 59.5739Z" fill="white"/>
<path d="M102.159 47.0562C102.222 47.1231 102.283 47.1958 102.341 47.2683C102.355 47.2855 102.368 47.3011 102.382 47.3211C102.436 47.3936 102.491 47.4706 102.544 47.5489C102.555 47.5646 102.566 47.5831 102.579 47.6015C102.643 47.6984 102.703 47.7982 102.762 47.9007C103.308 48.8476 104.183 49.413 104.959 49.4144C105.736 49.413 106.608 48.8476 107.157 47.9007C107.218 47.7953 107.279 47.6928 107.343 47.5974C107.353 47.5831 107.363 47.5703 107.371 47.5561C107.425 47.4749 107.482 47.3951 107.542 47.3182C107.554 47.3011 107.566 47.2869 107.577 47.2727C107.638 47.1971 107.7 47.1231 107.764 47.0547C107.775 47.0434 107.784 47.0334 107.794 47.0249C108.072 46.7386 108.404 46.5207 108.838 46.3997L108.645 46.2872H108.634L107.865 45.8386L107.075 45.3843L104.965 46.5378L104.959 46.5335L104.955 46.5378L102.843 45.3843L102.054 45.8371L101.284 46.2857H101.276L101.08 46.3983C101.515 46.5193 101.846 46.7343 102.125 47.0206C102.138 47.032 102.147 47.0448 102.159 47.0562ZM104.105 46.9636H104.999H105.891V47.5788C105.681 47.3211 105.272 47.3738 105.272 47.3738V48.261C105.272 48.261 105.288 48.6968 105.44 48.8861H104.999H104.556C104.711 48.6982 104.725 48.261 104.725 48.261V47.3738C104.725 47.3738 104.318 47.3211 104.105 47.5788V46.9636Z" fill="white"/>
<path d="M104.777 45.77V42.1686L102.494 41.3909L103.097 44.8814L104.777 45.77ZM104.287 43.0529V43.631L104.176 43.5798C104.171 43.5755 104.009 43.5385 103.725 43.3134C103.257 42.9489 103.249 42.6128 103.249 42.6128L104.287 43.0529Z" fill="white"/>
<path d="M106.825 44.8814L107.425 41.3909L105.143 42.1686V45.77L106.825 44.8814ZM105.634 43.0529L106.672 42.6142C106.672 42.6142 106.664 42.9503 106.194 43.3148C105.912 43.5399 105.749 43.5769 105.743 43.5812L105.633 43.6324V43.0529H105.634Z" fill="white"/>
<path d="M101.548 54.1204C101.771 54.2015 102.041 54.2186 102.178 54.2186C102.184 54.2015 102.191 54.1801 102.198 54.1545C102.211 54.1132 102.222 54.0734 102.231 54.0278C102.269 53.8285 102.283 53.602 102.286 53.4568C102.192 53.3983 102.06 53.2943 101.987 53.1391C101.902 52.9597 101.781 52.8771 101.604 52.8771C101.374 52.8771 101.127 53.0153 101.022 53.0809C100.939 53.5777 101.303 54.0292 101.548 54.1204Z" fill="white"/>
<path d="M106.599 52.2082C106.175 52.671 105.345 53.4771 105.304 53.5184L105.254 53.5697L102.632 53.5283C102.63 53.789 102.588 54.0111 102.547 54.1734C102.54 54.2005 102.533 54.229 102.525 54.2575L105.645 54.82C105.97 54.5921 106.864 53.937 107.21 53.6807C106.957 53.3105 106.933 52.8718 106.99 52.5628C106.825 52.456 106.699 52.3364 106.599 52.2082Z" fill="white"/>
<path d="M106.954 49.0416C106.35 49.644 105.77 49.8661 105.253 49.9174C105.159 49.9274 105.064 49.933 104.968 49.933H104.96H104.955C104.858 49.933 104.762 49.9274 104.668 49.9174C104.577 49.9089 104.482 49.8946 104.387 49.8733C104.353 50.0085 104.311 50.2919 104.433 50.5597C104.542 50.8032 104.765 50.984 105.089 51.1037L105.199 51.1464L105.2 51.2646C105.2 51.3002 105.226 52.0664 106.058 52.2785C106.194 52.1376 106.318 52.0108 106.408 51.9054C106.238 51.5038 106.327 51.0937 106.574 50.8929C106.563 50.9356 106.455 51.9411 107.258 52.3141L107.39 52.3768L107.35 52.5178C107.337 52.5605 107.069 53.5332 108.041 53.8949L108.212 53.9604L108.136 54.1285C108.119 54.1654 107.737 55.0485 108.635 55.5497H110.582V53.9974C109.89 53.9119 109.597 53.3538 109.521 52.9578C109.199 52.9023 108.95 52.7627 108.78 52.5349C108.371 51.9951 108.723 51.501 108.727 51.4739C108.726 51.4782 108.727 52.0051 109.05 52.3298C109.211 52.4864 109.401 52.6075 109.689 52.6346L109.831 52.6474L109.843 52.7927C109.846 52.8239 109.924 53.536 110.584 53.6485L110.582 50.4785C110.582 49.9872 110.725 49.4931 110.897 49.0373H106.954V49.0416Z" fill="white"/>
<path d="M101.714 50.4932L101.662 52.5126L101.89 52.5468L102.449 50.61L102.165 50.0148L101.714 50.4932Z" fill="white"/>
<path d="M107.875 59.7546C107.892 59.7546 107.912 59.7575 107.93 59.7617C108.278 59.8614 108.366 61.1203 108.975 61.2328C109.035 61.2456 109.09 61.2484 109.139 61.2484C109.314 61.2484 109.419 61.1729 109.533 61.0391C109.533 61.0391 109.226 60.5549 108.997 60.2289C108.692 59.8016 108.455 59.2846 107.888 59.2846C107.875 59.2846 107.858 59.2846 107.844 59.2861C107.657 59.2961 107.542 59.3871 107.542 59.3871C107.312 59.2419 107.098 59.1921 106.903 59.1921C106.548 59.1921 106.271 59.3559 106.133 59.3559H106.128L104.86 59.2306C104.661 59.212 104.505 59.0112 104.449 58.933C104.434 58.9115 104.427 58.8987 104.427 58.8987C104.427 58.8645 104.427 58.829 104.424 58.7976C104.382 57.7566 103.579 57.3109 103.294 57.3037C103.294 57.3037 103.328 57.1058 103.25 57.0304L102.971 57.3707L102.053 56.9078L102.707 57.6755L102.152 58.3006C102.083 58.3719 102.091 58.4687 102.12 58.5085L102.359 58.7207L102.663 58.5356C102.679 58.5243 102.706 58.5213 102.74 58.5213C102.823 58.5213 102.95 58.5427 103.063 58.5427C103.186 58.5427 103.294 58.5156 103.307 58.3988C103.269 58.7848 102.913 59.4555 103.147 59.9824L103.32 60.3798L102.199 60.2174L101.674 61.1075C101.513 61.4037 101.487 61.7241 101.643 61.8978L101.839 62.1443C101.839 62.1443 102.114 61.8508 102.177 61.6586L102.087 61.5603C102.012 61.4777 102.016 61.4037 102.062 61.314L102.391 60.7656L103.714 61.079L103.783 60.9594C103.873 60.8098 104.002 60.7642 104.144 60.7642C104.202 60.7642 104.261 60.7714 104.324 60.7814C104.569 60.8298 104.973 60.8953 105.378 60.8953C105.821 60.8953 106.261 60.8156 106.495 60.5521C106.974 61.2656 107.946 61.3795 107.869 61.7411L107.614 62.9631C107.783 62.9559 107.946 62.9445 108.1 62.9231L108.343 61.6514C108.37 61.5133 108.395 61.3267 108.395 61.3267C108.302 61.2314 108.075 61.0291 107.947 60.7842C107.776 60.4538 107.869 60.2815 107.709 59.8514C107.715 59.8543 107.763 59.7546 107.875 59.7546ZM102.925 57.9688C102.86 57.9674 102.813 57.9118 102.816 57.8464C102.822 57.7837 102.874 57.7338 102.938 57.7395C103.003 57.7424 103.05 57.7993 103.047 57.862C103.042 57.9246 102.988 57.9731 102.925 57.9688Z" fill="white"/>
<path d="M101.119 60.9107C101.119 60.9107 101.557 60.7298 101.596 60.6002L101.538 60.4535C101.497 60.3581 101.503 60.2541 101.582 60.1972L102.056 59.8682L102.847 60.0206C102.847 60.0206 102.704 59.8412 102.718 59.6005L101.964 59.4395L101.252 59.8753C100.947 60.1046 100.924 60.4791 101.025 60.7012L101.119 60.9107Z" fill="white"/>
<path d="M106.712 62.9822C106.854 62.9765 107.01 62.9737 107.181 62.9737C107.181 62.9737 107.588 61.7789 107.611 61.7405C107.383 61.6394 106.909 61.3872 106.726 61.2719C106.847 61.4528 107.14 61.6607 107.082 61.8202L106.712 62.9822Z" fill="white"/>
<path d="M110.586 55.8951H99.3354V60.1446C99.3354 61.882 100.588 62.97 102.436 62.97C103.98 62.97 104.387 63.0297 104.962 63.6023C105.357 63.2064 105.685 63.0582 106.357 63.0027L106.373 62.9372L106.727 61.8364C106.707 61.8122 106.127 61.15 106.127 61.15C105.898 61.227 105.705 61.2398 105.38 61.2398C105.047 61.2398 104.671 61.2013 104.264 61.1244C104.223 61.1145 104.184 61.1116 104.146 61.1116C104.096 61.1116 104.092 61.1158 104.079 61.14L104.009 61.2568L103.879 61.4704L103.637 61.4149L102.558 61.16L102.41 61.405L102.433 61.4305L102.565 61.5758L102.507 61.7652C102.427 62.013 102.169 62.3021 102.091 62.3819L101.822 62.6724L101.576 62.3605L101.392 62.1284C101.198 61.9105 101.152 61.5758 101.261 61.2255C101.259 61.2283 101.254 61.2297 101.25 61.2297L100.945 61.3565L100.808 61.0574L100.711 60.8453C100.545 60.4722 100.606 59.9267 101.053 59.5977L101.922 59.105L102.749 59.2688C102.769 59.189 102.799 58.9042 102.823 58.8317C102.807 58.8302 102.792 58.8259 102.776 58.8259L102.3 59.0039L101.84 58.685C101.84 58.685 101.66 58.5111 101.823 58.3375L102.268 57.6611L101.141 56.2397L102.874 56.9547L102.989 56.8109L103.223 56.5303L103.488 56.7838C103.563 56.8564 103.606 56.9461 103.627 57.0358C104.105 57.2224 104.96 57.7736 105.035 58.6692L104.767 58.7775V58.7846C104.828 58.8572 104.879 58.8872 104.895 58.89L106.132 59.0125C106.163 59.0068 106.203 58.9925 106.246 58.9797C106.4 58.9271 106.631 58.8516 106.904 58.8516C107.127 58.8516 107.343 58.9028 107.55 58.9997C107.626 58.9712 107.72 58.9498 107.828 58.9427L107.887 58.9413C108.55 58.9413 108.879 59.4382 109.142 59.8342C109.186 59.9025 109.23 59.968 109.276 60.0321C109.507 60.3597 109.809 60.8396 109.822 60.8595L109.958 61.0732L109.791 61.2683C109.662 61.4177 109.469 61.593 109.137 61.593C109.069 61.593 108.994 61.5858 108.913 61.5701C108.842 61.5573 108.778 61.5359 108.716 61.5103C108.706 61.5758 108.693 61.6542 108.68 61.721L108.463 62.8575C109.761 62.5371 110.585 61.553 110.585 60.146L110.586 55.8951Z" fill="#FFDD2D"/>
<path d="M99.3354 55.5538H108.084C107.648 55.101 107.653 54.5271 107.765 54.154C107.638 54.0927 107.533 54.0186 107.439 53.9389C107.097 54.1924 106.054 54.9557 105.781 55.1465L105.723 55.1864L102.29 54.5627H102.22C102.138 54.5627 102.017 54.5598 101.885 54.5441C101.849 54.6994 101.715 54.8062 101.562 54.8062C101.545 54.8062 101.525 54.8048 101.507 54.8005C101.417 54.7848 101.339 54.7392 101.287 54.6638C101.233 54.5897 101.212 54.5014 101.227 54.4103L101.24 54.3362C100.886 54.0856 100.559 53.5259 100.704 52.9363L100.718 52.8737L100.768 52.8381C100.775 52.8324 100.834 52.7925 100.922 52.7413L100.673 52.7028C100.579 52.6857 100.517 52.5988 100.531 52.5063C100.547 52.4123 100.635 52.3453 100.727 52.3639L101.321 52.4579L101.375 50.3559L102.26 49.416L102.812 50.5824L102.229 52.6046L102.753 52.6871C102.846 52.7014 102.909 52.7882 102.895 52.8836C102.881 52.9676 102.81 53.0261 102.726 53.0261C102.718 53.0261 102.708 53.0261 102.699 53.0247L102.273 52.9549C102.278 52.9676 102.287 52.9747 102.292 52.989C102.338 53.083 102.439 53.1514 102.498 53.1799L105.116 53.2212C105.227 53.1129 105.502 52.8423 105.784 52.5561C105.14 52.3112 104.906 51.7529 104.866 51.3826C104.506 51.2288 104.258 50.9982 104.121 50.6977C103.953 50.3261 104.013 49.9543 104.057 49.7735C103.708 49.6453 103.341 49.4118 102.966 49.0387H99.0234C99.1922 49.4943 99.3354 49.9885 99.3354 50.4798V55.5538Z" fill="#FFDD2D"/>
<path d="M102.94 57.7398C102.876 57.734 102.822 57.7838 102.817 57.8465C102.813 57.912 102.861 57.9675 102.927 57.9689C102.989 57.9747 103.045 57.9262 103.05 57.8622C103.05 57.7995 103.005 57.7412 102.94 57.7398Z" fill="#2C3F4D"/>
<path d="M110.571 65.4447L109.923 65.1954L110.101 64.5233L110.298 63.7899C110.298 63.7899 109.15 64.4151 107.532 64.8851C107.072 65.0175 106.725 65.0773 106.725 65.0773V65.5756C106.725 65.5756 105.859 65.7267 104.984 65.7267H104.974H104.962H104.945H104.935C104.06 65.7267 103.195 65.5756 103.195 65.5756V65.0773C103.195 65.0773 102.846 65.0175 102.388 64.8851C100.769 64.4151 99.6221 63.7899 99.6221 63.7899L99.8163 64.5233L99.9993 65.1954L99.3498 65.4447L98.6294 65.7152C99.4562 66.1154 100.601 66.6993 101.649 66.9869L101.402 67.6648C101.402 67.6648 102.731 68.2729 104.945 68.2786V68.2801H104.952H104.962H104.97H104.976V68.2786C107.193 68.2729 108.52 67.6648 108.52 67.6648L108.272 66.9869C109.32 66.6993 110.467 66.1154 111.29 65.7152L110.571 65.4447ZM99.398 65.7608L100.465 65.4049L100.15 64.3723C100.619 64.6401 101.673 65.0416 102.283 65.2282L101.768 66.648C100.826 66.3875 100.042 66.0841 99.398 65.7608ZM104.962 67.9226C103.724 67.9226 102.31 67.6363 101.894 67.4883L102.527 65.7694C103.051 65.9232 104.143 66.0869 104.936 66.0812H104.938H104.962H104.983H104.986C105.779 66.0869 106.868 65.9232 107.395 65.7694L108.026 67.4883C107.611 67.6377 106.198 67.9226 104.962 67.9226ZM108.153 66.648L107.639 65.2282C108.251 65.0416 109.301 64.6401 109.772 64.3723L109.459 65.4049L110.524 65.7608C109.879 66.0841 109.099 66.3875 108.153 66.648Z" fill="#2C3F4D"/>
<path d="M104.961 38.6152C106.28 38.6152 107.335 39.0539 107.917 39.5225C107.917 39.5225 108.091 38.4757 108.682 37.5515L107.62 37.6725L107.064 36.4863L105.996 37.0389L104.961 36.0106L103.928 37.0389L102.859 36.4863L102.304 37.6725L101.242 37.5515C101.833 38.4757 102.006 39.5225 102.006 39.5225C102.591 39.0539 103.643 38.6152 104.961 38.6152ZM102.256 38.0883L102.551 38.1197L102.679 37.8506L103.05 37.0531L103.739 37.4105L104.006 37.5472L104.219 37.3365L104.962 36.596L105.707 37.3365L105.919 37.5472L106.186 37.4105L106.871 37.0531L107.247 37.8506L107.372 38.1197L107.666 38.0883L107.947 38.0542C107.818 38.3462 107.723 38.6224 107.655 38.8517C106.912 38.4359 105.945 38.1994 104.959 38.1994C103.978 38.1994 103.012 38.4359 102.266 38.8517C102.196 38.6224 102.103 38.3447 101.974 38.0542L102.256 38.0883Z" fill="#2C3F4D"/>
<path d="M120.435 52.5041C122.141 52.5041 122.711 50.7611 122.735 50.687L122.925 50.0731L122.286 50.0931H122.283C122.057 50.0931 120.175 50.0432 118.841 48.34L118.714 48.182C117.842 47.0684 117.015 46.0103 115.538 45.5275C115.58 45.4891 115.641 45.4406 115.725 45.3865C116.509 44.8681 116.966 44.2387 117.081 43.5081C117.248 42.4087 116.55 41.5329 116.519 41.4973L116.044 40.9078L115.748 41.607C115.728 41.6511 115.228 42.7705 114.179 42.7705H114.101C114.029 42.7662 113.961 42.7633 113.893 42.7576C113.929 42.2578 113.839 41.4845 113.141 40.7596C112.303 39.8867 111.273 39.7557 110.734 39.7557C110.446 39.7557 110.255 39.7913 110.235 39.7942L109.517 39.9365L109.96 40.5219C110.307 40.9733 110.622 41.8064 110.249 42.2421C110.13 42.3803 109.885 42.4928 109.649 42.6052C109.166 42.8288 108.506 43.1392 108.506 43.9311C108.506 44.4438 108.902 44.9792 109.619 45.4349C111.744 46.7764 113.054 48.1763 113.62 49.7214C114.495 52.0982 113.354 53.4539 112.245 54.1674L111.747 54.4892L112.182 54.8908C112.24 54.9421 112.774 55.4135 113.561 55.4819C113.71 55.4918 113.853 55.5003 113.986 55.5003C114.491 55.5003 114.921 55.4206 115.27 55.3137C115.173 55.4832 115.055 55.6556 114.907 55.8293C114.273 56.5669 113.493 56.9031 112.371 56.9202L111.954 56.9273L111.921 57.3474C111.917 57.4314 111.886 58.2104 112.62 58.8726C112.732 58.975 112.869 59.0592 113.01 59.129C112.513 59.579 112.006 60.3622 111.909 61.7051C111.826 62.8258 111.56 63.2403 111.557 63.2444L111.096 63.9508L111.928 63.9623C113.304 63.9623 114.358 63.5806 115.088 62.8258C115.519 62.3786 115.766 61.8745 115.912 61.4274C116.152 61.6324 116.461 61.8118 116.864 61.9072C117.017 61.9429 117.184 61.9628 117.364 61.9628C117.753 61.9628 118.078 61.8802 118.115 61.8717L118.646 61.7292L118.411 61.2308C118.394 61.191 117.95 60.1912 118.428 58.7643C118.634 58.1477 118.739 57.5951 118.79 57.1651C119.124 57.3402 119.573 57.4855 120.152 57.4869C121.469 57.4869 122.049 56.5 122.076 56.4587L122.335 56.0058L121.854 55.8065C120.286 55.1529 119.938 53.3969 119.869 52.4457C120.011 52.4727 120.172 52.4984 120.355 52.5041H120.435ZM121.678 56.2266C121.678 56.2266 121.219 57.0284 120.165 57.0284H120.152C118.887 57.0212 118.377 56.2465 118.377 56.2465C118.377 56.2465 118.451 57.2548 117.994 58.6148C117.445 60.2539 117.998 61.426 117.998 61.426C117.998 61.426 117.703 61.5057 117.363 61.5057C117.232 61.5057 117.096 61.4929 116.969 61.4587C115.912 61.2066 115.648 60.2411 115.648 60.2411C115.648 60.2411 115.746 63.5037 111.958 63.5037H111.928C111.928 63.5037 112.262 63.0479 112.361 61.7363C112.541 59.3155 114.173 58.9837 114.173 58.9837C114.173 58.9837 113.303 58.874 112.925 58.5337C112.335 57.9968 112.376 57.3758 112.376 57.3758C113.71 57.3573 114.582 56.9017 115.247 56.1284C115.967 55.291 116.087 54.3896 116.087 54.3896C116.087 54.3896 115.37 55.0418 113.985 55.0418C113.863 55.0418 113.732 55.0361 113.599 55.0232C112.944 54.9706 112.49 54.5518 112.49 54.5518C113.932 53.6234 114.945 52.0028 114.047 49.5618C113.328 47.6066 111.601 46.1456 109.862 45.0447C109.283 44.6816 108.961 44.2786 108.961 43.9311C108.961 43.1137 110.119 43.088 110.594 42.5383C111.141 41.9003 110.798 40.8651 110.323 40.2428C110.323 40.2428 110.483 40.21 110.736 40.21C111.236 40.21 112.103 40.3367 112.815 41.0772C113.761 42.0598 113.368 43.1293 113.368 43.1293L113.622 43.1792C113.773 43.2119 113.924 43.2177 114.08 43.2247C114.114 43.2247 114.148 43.2262 114.182 43.2262C115.556 43.2262 116.17 41.7836 116.17 41.7836C116.17 41.7836 117.631 43.5879 115.481 45.0005C115.111 45.2426 114.948 45.4662 114.99 45.7055L115.024 45.8622L115.177 45.8892C116.736 46.3136 117.525 47.3931 118.488 48.6205C119.95 50.4876 122.019 50.5474 122.274 50.5474H122.301C122.301 50.5474 121.829 52.0441 120.438 52.0441C120.415 52.0441 120.395 52.0441 120.371 52.0427C119.731 52.0198 119.404 51.7735 119.404 51.7735C119.404 51.7735 119.153 55.1728 121.678 56.2266Z" fill="#2C3F4D"/>
<path d="M117.438 45.716C118.074 46.0562 118.445 46.512 118.769 46.9164C119.089 47.3108 119.392 47.6911 119.866 47.8492C120.034 47.9076 120.213 47.9347 120.395 47.9347C121.107 47.9347 121.821 47.4974 122.092 46.8922L122.365 46.2855L121.705 46.2456C121.674 46.2442 120.826 46.1673 119.881 45.1975C119.493 44.8003 119.023 44.5908 118.517 44.5908C117.899 44.5908 117.44 44.9013 117.389 44.9327L116.782 45.3614L117.438 45.716ZM118.518 45.0495C118.836 45.0495 119.206 45.1576 119.557 45.5208C120.656 46.6416 121.678 46.7042 121.678 46.7042C121.492 47.1172 120.953 47.4803 120.396 47.4803C120.267 47.4803 120.138 47.4604 120.009 47.4163C119.253 47.16 118.982 46.0207 117.653 45.3114C117.653 45.3114 118.025 45.0495 118.518 45.0495Z" fill="#2C3F4D"/>
<path d="M117.735 51.7666V51.7895C117.352 48.6878 115.109 46.4477 112.613 45.0849C112.382 44.9609 112.169 44.8556 111.962 44.7545C112.722 44.8727 113.946 44.8869 114.89 44.0638C114.89 44.0638 113.445 45.1319 110.484 44.1621C111.304 44.6961 112.896 45.4495 114.35 46.6699C117.985 49.8768 115.384 53.0056 115.384 53.0056C116.69 51.6371 116.744 50.1703 116.36 48.9727C117.047 50.1219 117.487 51.5174 117.419 53.2377C117.318 55.7028 115.97 57.8347 114.55 59.5479C113.868 60.3795 113.715 61.4006 113.715 61.4006C113.715 61.4006 113.99 60.4992 114.78 59.572C116.301 57.7835 117.602 55.9249 117.772 53.2477C117.93 53.7334 118.578 55.0848 119.606 55.5932C119.609 55.5946 118.317 54.8128 117.735 51.7666Z" fill="#2C3F4D"/>
<path d="M98.3639 63.2437C98.3624 63.2395 98.0986 62.8251 98.0136 61.7043C97.9144 60.3615 97.4093 59.5782 96.9102 59.1282C97.0549 59.0598 97.1882 58.9758 97.3002 58.8719C98.0334 58.2096 98.0022 57.4307 97.9979 57.3467L97.9696 56.9266L97.5498 56.9195C96.4308 56.9009 95.6493 56.5649 95.0154 55.8285C94.8679 55.6549 94.7488 55.4825 94.6524 55.3131C95.0012 55.4198 95.4281 55.4997 95.9344 55.4997C96.0706 55.4997 96.211 55.491 96.3599 55.4811C97.147 55.4128 97.6803 54.9427 97.7398 54.8901L98.1752 54.4886L97.6774 54.1667C96.5641 53.4518 95.4267 52.0961 96.3003 49.7207C96.8662 48.1756 98.1752 46.7756 100.303 45.4341C101.02 44.9784 101.413 44.4431 101.413 43.9304C101.413 43.1385 100.755 42.8267 100.271 42.6045C100.036 42.492 99.7906 42.3796 99.6715 42.2414C99.2971 41.807 99.6133 40.9726 99.9594 40.5211L100.405 39.9358L99.6842 39.7934C99.663 39.7906 99.4743 39.755 99.185 39.755C98.646 39.755 97.6193 39.886 96.7797 40.7589C96.0805 41.4852 95.9884 42.2585 96.0238 42.7569C95.9557 42.7626 95.8877 42.7655 95.8167 42.7697H95.7402C94.6879 42.7697 94.1901 41.6504 94.1702 41.6062L93.8737 40.907L93.3944 41.4966C93.3675 41.5322 92.6669 42.4095 92.8371 43.5074C92.9505 44.2379 93.4072 44.8673 94.1914 45.3858C94.2765 45.4399 94.3361 45.4883 94.3786 45.5268C92.9023 46.0095 92.0769 47.069 91.2047 48.1827L91.0784 48.3408C89.7454 50.0439 87.8591 50.0939 87.6336 50.0939L86.9912 50.0739L87.1869 50.6876C87.2096 50.7616 87.7783 52.5048 89.4858 52.5048L89.5681 52.502C89.7481 52.4963 89.9099 52.472 90.0546 52.4436C89.9836 53.3934 89.6361 55.1493 88.0661 55.8044L87.5868 56.0038L87.8464 56.4566C87.8719 56.4979 88.4534 57.4848 89.7722 57.4848C90.3481 57.4834 90.7962 57.3381 91.1324 57.163C91.1834 57.593 91.2883 58.1456 91.494 58.7622C91.972 60.1891 91.5266 61.1888 91.5096 61.2287L91.2742 61.7272L91.8075 61.8696C91.8429 61.8781 92.1705 61.9606 92.5576 61.9606C92.7392 61.9606 92.9066 61.9407 93.0569 61.9051C93.4611 61.8096 93.7731 61.6304 94.0099 61.4252C94.1546 61.8723 94.4027 62.3765 94.8325 62.8237C95.5642 63.5784 96.6165 63.96 97.9922 63.96L98.8262 63.9487L98.3639 63.2437ZM97.961 63.5044C94.173 63.5044 94.2695 60.2418 94.2695 60.2418C94.2695 60.2418 94.0057 61.2073 92.9491 61.4594C92.8229 61.4936 92.6881 61.5065 92.5562 61.5065C92.2159 61.5065 91.9223 61.4266 91.9223 61.4266C91.9223 61.4266 92.4726 60.2546 91.9237 58.6156C91.4699 57.2555 91.5437 56.2473 91.5437 56.2473C91.5437 56.2473 91.0345 57.0219 89.7681 57.029H89.7553C88.7016 57.029 88.2421 56.2273 88.2421 56.2273C90.7665 55.1749 90.5182 51.7771 90.5182 51.7771C90.5182 51.7771 90.1907 52.022 89.5496 52.0463C89.5269 52.0476 89.5057 52.0477 89.483 52.0477C88.0902 52.0477 87.6194 50.551 87.6194 50.551H87.6478C87.9045 50.551 89.9709 50.4911 91.433 48.6241C92.396 47.3965 93.1859 46.3185 94.7417 45.8928L94.8977 45.8658L94.9318 45.7091C94.9743 45.4698 94.8126 45.2463 94.4425 45.0041C92.2925 43.59 93.7533 41.7871 93.7533 41.7871C93.7533 41.7871 94.3645 43.2284 95.7415 43.2284C95.7756 43.2284 95.8068 43.2269 95.8423 43.2269C95.9968 43.2183 96.15 43.2126 96.3003 43.1799L96.5542 43.13C96.5542 43.13 96.1613 42.0605 97.1087 41.0779C97.8207 40.336 98.6872 40.2107 99.1864 40.2107C99.4403 40.2107 99.5977 40.2434 99.5977 40.2434C99.124 40.8671 98.7808 41.9011 99.3281 42.5391C99.8019 43.0873 100.958 43.1144 100.958 43.9318C100.958 44.2778 100.636 44.6824 100.057 45.0454C98.317 46.1463 96.5897 47.6073 95.872 49.5626C94.9757 52.0035 95.9869 53.6227 97.4321 54.5526C97.4321 54.5526 96.9782 54.9713 96.3216 55.024C96.1883 55.0368 96.0593 55.0424 95.9344 55.0424C94.5502 55.0424 93.8341 54.3902 93.8341 54.3902C93.8341 54.3902 93.9531 55.2918 94.6694 56.1291C95.3388 56.9023 96.211 57.358 97.5442 57.3766C97.5442 57.3766 97.5867 57.9975 96.9967 58.5342C96.6181 58.8732 95.7472 58.9843 95.7472 58.9843C95.7472 58.9843 97.3811 59.3161 97.5597 61.737C97.6576 63.0486 97.988 63.5044 97.988 63.5044H97.961Z" fill="#2C3F4D"/>
<path d="M89.5247 47.9366C89.7077 47.9366 89.8864 47.9095 90.055 47.8511C90.5316 47.693 90.8337 47.3128 91.1528 46.9183C91.479 46.5139 91.8463 46.0582 92.483 45.7179L93.1383 45.3647L92.5299 44.936C92.4788 44.9033 92.0221 44.5943 91.4052 44.5943C90.8975 44.5943 90.4267 44.8022 90.0395 45.2008C89.0949 46.1693 88.2483 46.2475 88.217 46.249L87.5576 46.2874L87.8285 46.8955C88.1007 47.4979 88.8141 47.9366 89.5247 47.9366ZM90.3642 45.5228C90.716 45.1595 91.0861 45.0514 91.4052 45.0514C91.8959 45.0514 92.2675 45.3133 92.2675 45.3133C90.9401 46.024 90.6678 47.1619 89.909 47.4182C89.7842 47.4623 89.6537 47.4823 89.5247 47.4823C88.9673 47.4823 88.4284 47.1206 88.244 46.7062C88.244 46.7048 89.2651 46.642 90.3642 45.5228Z" fill="#2C3F4D"/>
<path d="M92.5013 53.2392C92.4304 51.5188 92.8701 50.1232 93.5593 48.974C93.1749 50.1717 93.2275 51.6385 94.535 53.007C94.535 53.007 91.934 49.8783 95.5703 46.6713C97.0255 45.4508 98.6167 44.6974 99.435 44.1634C96.4752 45.1332 95.03 44.0652 95.03 44.0652C95.9745 44.8883 97.1985 44.8741 97.9587 44.7545C97.753 44.8555 97.5374 44.9609 97.309 45.0848C94.8102 46.4477 92.568 48.6878 92.1836 51.7894V51.7653C91.6036 54.8114 90.313 55.5932 90.313 55.5932C91.3398 55.0847 91.9866 53.7347 92.1439 53.2477C92.3156 55.925 93.616 57.7834 95.1378 59.5721C95.9277 60.4991 96.2057 61.4006 96.2057 61.4006C96.2057 61.4006 96.0511 60.3794 95.3662 59.5478C93.9493 57.8375 92.6006 55.7042 92.5013 53.2392Z" fill="#2C3F4D"/>
<path d="M104.105 46.9642V47.5794C104.316 47.3216 104.725 47.3744 104.725 47.3744V48.2616C104.725 48.2616 104.711 48.6973 104.556 48.8867H104.999H105.44C105.288 48.6987 105.272 48.2616 105.272 48.2616V47.3744C105.272 47.3744 105.681 47.3216 105.891 47.5794V46.9642H104.999H104.105Z" fill="#2C3F4D"/>
<path d="M103.725 43.3152C104.007 43.5403 104.171 43.5773 104.176 43.5816L104.287 43.6328V43.0532L103.249 42.6146C103.249 42.616 103.259 42.9506 103.725 43.3152Z" fill="#2C3F4D"/>
<path d="M106.194 43.3152C106.664 42.9506 106.672 42.6146 106.672 42.6146L105.634 43.0532V43.6328L105.743 43.5816C105.751 43.5773 105.912 43.5403 106.194 43.3152Z" fill="#2C3F4D"/>
<path d="M108.065 40.955C108.065 40.0763 106.591 39.286 104.964 39.286H104.963H104.959H104.955C103.328 39.286 101.854 40.0763 101.854 40.955L101.887 41.1714L102.536 44.9153L101.884 45.2956L100.196 46.2853H100.202C100.202 46.2853 99.822 46.4804 99.646 46.6014C99.0037 47.0501 98.8676 47.7037 99.2404 47.9743C99.3327 47.4417 99.7524 46.8834 100.538 46.8834C101.104 46.8834 101.535 47.1767 101.884 47.6168C101.973 47.7279 102.058 47.8461 102.138 47.9743C102.236 48.1351 102.334 48.2762 102.432 48.4129H98.0847C98.4038 49.058 98.7072 49.7416 98.7072 50.4835V60.1445C98.7072 62.4828 100.498 63.5993 102.436 63.5993C103.933 63.5993 104.135 63.531 104.962 64.3569C105.784 63.5295 105.986 63.5993 107.485 63.5993C109.423 63.5993 111.212 62.4828 111.212 60.1445V50.4835C111.212 49.7416 111.515 49.058 111.836 48.4129H107.487C107.584 48.2776 107.682 48.1351 107.78 47.9743C107.86 47.8461 107.944 47.7279 108.032 47.6168C108.384 47.1754 108.813 46.8834 109.379 46.8834C110.165 46.8834 110.583 47.4402 110.677 47.9743C111.05 47.7037 110.915 47.0501 110.268 46.6014C110.096 46.4804 109.715 46.2853 109.715 46.2853H109.721L108.033 45.2956L107.384 44.9153L108.033 41.1714L108.065 40.955ZM102.494 41.3907L104.777 42.1683V45.7698L103.097 44.8798L102.494 41.3907ZM102.966 49.0409C103.341 49.4154 103.708 49.6476 104.057 49.7757C104.011 49.9566 103.952 50.3297 104.121 50.7013C104.258 51.0004 104.508 51.2312 104.867 51.385C104.906 51.7553 105.139 52.312 105.784 52.5584C105.502 52.8446 105.227 53.1138 105.115 53.2234L102.498 53.1821C102.439 53.1522 102.338 53.0853 102.293 52.9899C102.287 52.9771 102.278 52.9699 102.274 52.9557L102.701 53.0255C102.711 53.0269 102.719 53.0269 102.728 53.0269C102.81 53.0269 102.882 52.9699 102.897 52.8845C102.911 52.7891 102.847 52.7022 102.755 52.6879L102.23 52.6053L102.813 50.5845L102.261 49.4183L101.376 50.3582L101.322 52.4601L100.728 52.3661C100.636 52.3476 100.548 52.416 100.533 52.5085C100.518 52.6012 100.581 52.6879 100.674 52.7051L100.924 52.7435C100.835 52.7948 100.776 52.8346 100.769 52.8403L100.718 52.8759L100.704 52.9387C100.559 53.5282 100.887 54.0879 101.24 54.3385L101.227 54.4125C101.213 54.5037 101.233 54.5919 101.287 54.666C101.338 54.7415 101.417 54.7871 101.505 54.8027C101.524 54.8056 101.544 54.807 101.561 54.807C101.714 54.807 101.847 54.7002 101.885 54.545C102.017 54.5606 102.138 54.5635 102.22 54.5635H102.29L105.723 55.1858L105.781 55.1474C106.055 54.9551 107.097 54.1919 107.439 53.9397C107.533 54.0209 107.638 54.095 107.765 54.1562C107.655 54.5292 107.648 55.1032 108.086 55.5561H99.3355V50.4849C99.3355 49.9936 99.1923 49.4995 99.0235 49.0438H102.966V49.0409ZM107.209 53.6806C106.862 53.9369 105.969 54.5919 105.645 54.8198L102.525 54.2573C102.532 54.2288 102.539 54.2018 102.546 54.1733C102.588 54.0109 102.629 53.7888 102.631 53.5282L105.254 53.5709L105.303 53.5196C105.343 53.4798 106.174 52.6737 106.598 52.2095C106.699 52.3362 106.825 52.4573 106.99 52.564C106.933 52.8717 106.957 53.3103 107.209 53.6806ZM101.986 53.1379C102.06 53.2932 102.193 53.3972 102.285 53.4556C102.283 53.6008 102.268 53.8272 102.23 54.0266C102.222 54.0707 102.21 54.112 102.197 54.1533C102.19 54.179 102.183 54.2004 102.178 54.2174C102.04 54.2174 101.769 54.2004 101.548 54.1192C101.303 54.028 100.937 53.5766 101.022 53.0796C101.128 53.014 101.373 52.8759 101.603 52.8759C101.781 52.8745 101.901 52.9585 101.986 53.1379ZM101.661 52.5128L101.714 50.4949L102.165 50.015L102.449 50.6102L101.89 52.547L101.661 52.5128ZM107.181 62.9741C107.011 62.9741 106.853 62.977 106.712 62.9827L107.083 61.822C107.141 61.6611 106.848 61.4546 106.727 61.2738C106.91 61.3892 107.384 61.6412 107.612 61.7423C107.588 61.7793 107.181 62.9741 107.181 62.9741ZM108.347 61.6554L108.104 62.9258C107.95 62.9471 107.785 62.9584 107.616 62.9656L107.872 61.7438C107.948 61.3805 106.977 61.268 106.498 60.5546C106.263 60.8195 105.822 60.8979 105.38 60.8979C104.976 60.8979 104.572 60.8323 104.326 60.7839C104.264 60.774 104.204 60.7668 104.146 60.7668C104.004 60.7668 103.875 60.811 103.786 60.9619L103.715 61.0815L102.392 60.7682L102.063 61.3151C102.016 61.4034 102.013 61.4789 102.088 61.5614L102.178 61.6598C102.117 61.8534 101.842 62.1453 101.842 62.1453L101.644 61.8989C101.488 61.7238 101.514 61.4048 101.677 61.1086L102.202 60.2185L103.322 60.3809L103.148 59.9821C102.914 59.4552 103.27 58.7845 103.308 58.3985C103.295 58.5153 103.189 58.541 103.064 58.541C102.951 58.541 102.824 58.5196 102.741 58.5196C102.708 58.5196 102.68 58.5224 102.664 58.5338L102.361 58.719L102.121 58.5068C102.093 58.4655 102.083 58.37 102.154 58.2989L102.708 57.6751L102.053 56.9075L102.97 57.3704L103.25 57.03C103.326 57.1055 103.294 57.3034 103.294 57.3034C103.58 57.3105 104.383 57.7563 104.425 58.7959C104.428 58.8271 104.428 58.8628 104.428 58.8969C104.428 58.8969 104.435 58.9098 104.45 58.9311C104.506 59.0095 104.662 59.2103 104.861 59.2288L106.129 59.3541H106.134C106.273 59.3541 106.55 59.1904 106.904 59.1904C107.097 59.1904 107.313 59.2402 107.543 59.3854C107.543 59.3854 107.658 59.2943 107.845 59.2843C107.859 59.2829 107.875 59.2829 107.889 59.2829C108.458 59.2829 108.693 59.7985 108.998 60.2271C109.228 60.5532 109.534 61.0374 109.534 61.0374C109.42 61.1726 109.315 61.2467 109.14 61.2467C109.092 61.2467 109.036 61.2424 108.977 61.2311C108.367 61.1185 108.279 59.8597 107.931 59.7599C107.913 59.7543 107.893 59.7528 107.876 59.7528C107.764 59.7528 107.714 59.8526 107.714 59.8526C107.873 60.2811 107.781 60.455 107.951 60.7853C108.079 61.0303 108.306 61.2325 108.399 61.3279C108.399 61.3307 108.374 61.5159 108.347 61.6554ZM101.538 60.4535L101.596 60.6002C101.558 60.7284 101.118 60.9106 101.118 60.9106L101.023 60.7027C100.923 60.4805 100.944 60.106 101.25 59.8767L101.962 59.441L102.717 59.6018C102.702 59.8425 102.846 60.022 102.846 60.022L102.054 59.8697L101.581 60.1986C101.501 60.2541 101.495 60.3581 101.538 60.4535ZM108.466 62.856L108.683 61.7195C108.694 61.6526 108.709 61.5743 108.718 61.5087C108.779 61.5344 108.845 61.5558 108.916 61.5686C108.996 61.5842 109.072 61.5913 109.14 61.5913C109.472 61.5913 109.664 61.4162 109.793 61.2666L109.961 61.0716L109.825 60.858C109.812 60.8366 109.511 60.3581 109.279 60.0305C109.233 59.9665 109.189 59.9024 109.145 59.8326C108.882 59.4366 108.551 58.9398 107.889 58.9398L107.829 58.9412C107.72 58.9483 107.626 58.9696 107.551 58.998C107.343 58.8998 107.129 58.85 106.906 58.85C106.632 58.85 106.401 58.9255 106.248 58.9781C106.204 58.991 106.164 59.0052 106.133 59.0109L104.895 58.8884C104.879 58.8856 104.828 58.8557 104.767 58.7817V58.7759L105.035 58.6677C104.96 57.772 104.104 57.2208 103.626 57.0343C103.604 56.9445 103.562 56.8548 103.487 56.7822L103.22 56.5287L102.986 56.8107L102.871 56.9546L101.138 56.2396L102.266 57.6609L101.82 58.3373C101.657 58.5111 101.837 58.6848 101.837 58.6848L102.297 59.0024L102.773 58.8244C102.79 58.8244 102.804 58.8287 102.82 58.83C102.797 58.9026 102.768 59.1875 102.748 59.2672L101.921 59.1034L101.052 59.5962C100.605 59.9252 100.544 60.4706 100.71 60.8438L100.806 61.0558L100.944 61.355L101.247 61.2282C101.252 61.2267 101.256 61.2253 101.259 61.2226C101.149 61.5728 101.193 61.906 101.389 62.1254L101.573 62.3589L101.819 62.6708L102.088 62.3803C102.168 62.3005 102.424 62.0115 102.504 61.7637L102.562 61.5742L102.43 61.429L102.409 61.4034L102.556 61.1584L103.635 61.4133L103.878 61.4689L104.007 61.2552L104.078 61.1384C104.091 61.1143 104.095 61.1099 104.145 61.1099C104.183 61.1099 104.221 61.1143 104.262 61.1228C104.669 61.1997 105.045 61.2382 105.379 61.2382C105.702 61.2382 105.895 61.2253 106.126 61.1485C106.126 61.1485 106.706 61.8092 106.726 61.8349L106.371 62.9343L106.356 63.0012C105.683 63.0552 105.356 63.2034 104.96 63.6007C104.386 63.0282 103.979 62.9685 102.434 62.9685C100.586 62.9685 99.3341 61.8805 99.3341 60.1431V55.8951H110.583L110.586 60.1431C110.588 61.5529 109.764 62.5355 108.466 62.856ZM110.898 49.0409C110.727 49.4966 110.583 49.9908 110.583 50.4821L110.585 53.6521C109.925 53.541 109.847 52.8275 109.844 52.7962L109.832 52.651L109.69 52.6381C109.403 52.6111 109.213 52.4885 109.053 52.332C108.73 52.0073 108.728 51.4804 108.73 51.476C108.726 51.5031 108.374 51.9972 108.782 52.537C108.954 52.7649 109.202 52.9045 109.524 52.96C109.599 53.3559 109.893 53.9141 110.585 53.9996V55.5518H108.639C107.741 55.0506 108.121 54.1676 108.14 54.1306L108.216 53.9625L108.045 53.897C107.073 53.5353 107.34 52.5612 107.354 52.5199L107.394 52.3775L107.262 52.3149C106.459 51.9417 106.568 50.9349 106.578 50.8937C106.332 51.0944 106.242 51.5045 106.412 51.9061C106.32 52.0115 106.197 52.1397 106.062 52.2792C105.231 52.0671 105.206 51.2995 105.206 51.264L105.204 51.1457L105.095 51.103C104.77 50.9819 104.547 50.8011 104.438 50.5575C104.315 50.2885 104.359 50.0065 104.393 49.8711C104.488 49.8925 104.583 49.9082 104.674 49.9153C104.767 49.9252 104.864 49.931 104.96 49.931H104.966H104.973C105.069 49.931 105.164 49.9252 105.258 49.9153C105.776 49.864 106.356 49.6405 106.96 49.0394H110.898V49.0409ZM107.866 45.8366L108.635 46.2853H108.646L108.839 46.3978C108.405 46.5188 108.073 46.7367 107.795 47.023C107.785 47.0315 107.775 47.0429 107.765 47.0529C107.702 47.1212 107.638 47.1953 107.578 47.2708C107.567 47.285 107.556 47.3007 107.543 47.3164C107.483 47.3932 107.428 47.4716 107.374 47.5541C107.365 47.5685 107.356 47.5827 107.346 47.5954C107.282 47.6909 107.221 47.7934 107.16 47.8987C106.612 48.8458 105.739 49.4112 104.962 49.4126C104.186 49.4112 103.312 48.8458 102.765 47.8987C102.705 47.7962 102.646 47.6966 102.582 47.5997C102.569 47.5812 102.558 47.5627 102.546 47.547C102.492 47.4687 102.439 47.3918 102.383 47.3193C102.369 47.2993 102.356 47.2836 102.342 47.2665C102.283 47.1938 102.222 47.1212 102.161 47.0543C102.148 47.0444 102.139 47.0315 102.127 47.0201C101.847 46.7339 101.517 46.5174 101.081 46.3978L101.277 46.2853H101.286L102.054 45.8366L102.844 45.3825L104.955 46.5359L104.959 46.5317L104.964 46.5359L107.075 45.3825L107.866 45.8366ZM106.825 44.8811L105.143 45.7712V42.1683L107.425 41.3907L106.825 44.8811ZM104.96 41.7724L102.458 40.7798C102.671 40.2743 103.653 39.8441 104.96 39.8427C106.269 39.8441 107.251 40.2743 107.462 40.7798L104.96 41.7724Z" fill="#2C3F4D"/>
<path d="M135.94 56.8441V51.1419H139.271V49.0669H130.184V51.1419H133.515V56.8441H135.94ZM142.586 53.5927V49.0669H140.242V56.8441H142.312L146.354 52.3183V56.8441H148.698V49.0669H146.629L142.586 53.5927ZM156.586 53.9522V56.8441H158.931V49.0669H156.586V51.9098H152.819V49.0669H150.474V56.8441H152.819V53.9522H156.586ZM165.46 56.8441C165.993 56.8441 166.478 56.7951 166.931 56.6644C168.144 56.3213 168.936 55.3246 168.936 53.9685C168.936 52.6777 168.258 51.7791 167.175 51.3706C166.655 51.1746 166.042 51.1582 165.46 51.1582H163.05V49.0669H160.706V56.8441H165.46ZM165.056 52.9882C165.379 52.9882 165.686 52.9882 165.961 53.0862C166.35 53.2169 166.576 53.5437 166.576 53.9358C166.576 54.3443 166.35 54.6874 165.978 54.8508C165.719 54.9652 165.46 54.9652 165.056 54.9652H163.05V52.9882H165.056ZM173.14 53.9032L175.938 56.8441H179.057L175.161 52.7921L178.913 49.0669H175.97L173.14 51.9915H172.494V49.0669H170.149V56.8441H172.494V53.9032H173.14ZM183.882 48.8545C180.728 48.8545 178.837 50.6517 178.837 52.9718C178.837 55.292 180.728 57.0892 183.882 57.0892C187.019 57.0892 188.911 55.292 188.911 52.9718C188.911 50.6517 187.019 48.8545 183.882 48.8545ZM183.882 55.194C182.314 55.194 181.312 54.2463 181.312 52.9718C181.312 51.6975 182.314 50.7661 183.882 50.7661C185.434 50.7661 186.453 51.6975 186.453 52.9718C186.453 54.2463 185.434 55.194 183.882 55.194ZM196.719 48.6257H194.375V49.4099C191.432 49.4753 189.669 50.7334 189.669 52.9555C189.669 55.1775 191.432 56.3376 194.375 56.403V57.1873H196.719V56.403C199.678 56.3376 201.441 55.1775 201.441 52.9555C201.441 50.7334 199.678 49.4753 196.719 49.4099V48.6257ZM194.375 54.7364C192.758 54.6711 192.046 54.0012 192.046 52.9555C192.046 51.9098 192.758 51.1582 194.375 51.0929V54.7364ZM196.719 51.0929C198.353 51.1582 199.048 51.9098 199.048 52.9555C199.048 54.0012 198.353 54.6711 196.719 54.7364V51.0929ZM209.241 48.6257H206.896V49.4099C203.953 49.4753 202.192 50.7334 202.192 52.9555C202.192 55.1775 203.953 56.3376 206.896 56.403V57.1873H209.241V56.403C212.2 56.3376 213.963 55.1775 213.963 52.9555C213.963 50.7334 212.2 49.4753 209.241 49.4099V48.6257ZM206.896 54.7364C205.279 54.6711 204.568 54.0012 204.568 52.9555C204.568 51.9098 205.279 51.1582 206.896 51.0929V54.7364ZM209.241 51.0929C210.874 51.1582 211.569 51.9098 211.569 52.9555C211.569 54.0012 210.874 54.6711 209.241 54.7364V51.0929Z" fill="#2C3F4D"/>
</svg>
